<?xml version="1.0" encoding="UTF-8" standalone="no"?>
<!-- Generator: Adobe Illustrator 16.0.0, SVG Export Plug-In . SVG Version: 6.00 Build 0)  -->

<svg
   xmlns:dc="http://purl.org/dc/elements/1.1/"
   xmlns:cc="http://creativecommons.org/ns#"
   xmlns:rdf="http://www.w3.org/1999/02/22-rdf-syntax-ns#"
   xmlns:svg="http://www.w3.org/2000/svg"
   xmlns="http://www.w3.org/2000/svg"
   xmlns:sodipodi="http://sodipodi.sourceforge.net/DTD/sodipodi-0.dtd"
   xmlns:inkscape="http://www.inkscape.org/namespaces/inkscape"
   version="1.1"
   id="Capa_1"
   x="0px"
   y="0px"
   width="612px"
   height="612px"
   viewBox="0 0 612 612"
   style="enable-background:new 0 0 612 612;"
   xml:space="preserve"
   sodipodi:docname="add-user-symbol-of-interface-icon.svg"
   inkscape:version="0.92.1 r15371"><metadata
     id="metadata49"><rdf:RDF><cc:Work
         rdf:about=""><dc:format>image/svg+xml</dc:format><dc:type
           rdf:resource="http://purl.org/dc/dcmitype/StillImage" /><dc:title></dc:title></cc:Work></rdf:RDF></metadata><defs
     id="defs47" /><sodipodi:namedview
     pagecolor="#ffffff"
     bordercolor="#666666"
     borderopacity="1"
     objecttolerance="10"
     gridtolerance="10"
     guidetolerance="10"
     inkscape:pageopacity="0"
     inkscape:pageshadow="2"
     inkscape:window-width="1366"
     inkscape:window-height="705"
     id="namedview45"
     showgrid="false"
     inkscape:zoom="0.87581699"
     inkscape:cx="306"
     inkscape:cy="306"
     inkscape:window-x="-8"
     inkscape:window-y="-8"
     inkscape:window-maximized="1"
     inkscape:current-layer="Capa_1" /><g
     id="g12"><path
       d="M275.4,295.8c81.682,0,147.899-66.217,147.899-147.9C423.299,66.218,357.082,0,275.4,0c-81.683,0-147.9,66.217-147.9,147.9   C127.5,229.583,193.717,295.8,275.4,295.8z M345.461,206.604c-6.729,22.246-35.549,38.968-70.09,38.968   c-34.542,0-63.363-16.723-70.091-38.968H345.461z M586.5,510v20.4c0,5.634-4.566,10.2-10.199,10.2H515.1V601.8   c0,5.634-4.566,10.2-10.199,10.2h-20.4c-5.633,0-10.199-4.566-10.199-10.2v-61.199H413.1c-5.633,0-10.199-4.566-10.199-10.2V510   c0-5.633,4.566-10.199,10.199-10.199h61.201v-61.2c0-5.634,4.566-10.2,10.199-10.2h20.4c5.633,0,10.199,4.566,10.199,10.2v61.2   h61.201C581.934,499.8,586.5,504.367,586.5,510z M382.5,510v20.4c0,5.419,1.535,10.438,4.016,14.857   c-30.803,3.35-67.52,5.542-111.116,5.542c-142.607,0-212.393-23.302-237.979-34.686c-6.602-2.938-11.921-11.336-11.921-18.562   V448.8c0-73.056,55.624-133.663,126.599-141.78c2.157-0.247,5.355,0.677,7.113,1.949C191.938,332.66,232.002,346.8,275.4,346.8   s83.463-14.14,116.188-37.831c1.758-1.272,4.957-2.196,7.113-1.949c58.746,6.719,106.869,49.438,121.744,105.37   c-4.572-2.724-9.848-4.389-15.545-4.389h-20.4c-16.873,0-30.6,13.726-30.6,30.6v40.8H413.1C396.227,479.4,382.5,493.126,382.5,510z   "
       id="path10" /></g><g
     id="g14" /><g
     id="g16" /><g
     id="g18" /><g
     id="g20" /><g
     id="g22" /><g
     id="g24" /><g
     id="g26" /><g
     id="g28" /><g
     id="g30" /><g
     id="g32" /><g
     id="g34" /><g
     id="g36" /><g
     id="g38" /><g
     id="g40" /><g
     id="g42" /><path
     style="fill:#ffffff;stroke-width:1.14179099"
     d="M 228.24403,549.32653 C 159.52113,546.48757 99.836226,537.33968 57.546269,523.16374 34.261547,515.3585 27.837067,510.28821 26.038986,498.29775 c -1.366416,-9.11191 0.391841,-66.18594 2.328314,-75.57839 8.927126,-43.29912 36.496312,-80.06397 74.91945,-99.90875 5.72893,-2.95887 14.82276,-6.86927 20.2085,-8.68977 9.09646,-3.0748 25.36868,-6.75069 29.88355,-6.75069 1.07437,0 6.79793,3.12505 12.71902,6.94457 32.16132,20.74627 64.32444,31.02873 102.1089,32.64393 40.51169,1.73178 82.98153,-10.17225 116.41014,-32.62904 10.45148,-7.02114 11.38755,-7.29013 20.3733,-5.85465 43.75854,6.99046 83.11705,35.67432 103.45339,75.39519 6.09078,11.89649 11.09677,24.78954 10.03665,25.84965 -0.37156,0.37156 -2.31989,0.10236 -4.32961,-0.59823 -2.04992,-0.71461 -10.97261,-1.26891 -20.32507,-1.26265 -15.15244,0.0102 -17.19108,0.25742 -22.38,2.71465 -6.90669,3.27069 -12.20593,8.64543 -15.3245,15.54285 -2.0924,4.62779 -2.3256,7.48121 -2.34819,28.7321 l -0.0251,23.59405 -24.26306,0.38356 c -22.69331,0.35876 -24.61311,0.55597 -29.67371,3.04823 -7.41301,3.65079 -14.18104,11.62859 -16.43091,19.36789 -2.22234,7.64458 -1.81962,35.66371 0.57504,40.00741 0.8086,1.46674 1.22992,2.90709 0.93625,3.20075 -1.08399,1.084 -38.78295,3.85197 -67.58764,4.96249 -33.01429,1.27281 -56.71441,1.24982 -89.05971,-0.0863 z"
     id="path3721"
     inkscape:connector-curvature="0" /><path
     style="fill:#ffffff;stroke-width:1.14179099"
     d="m 249.93806,292.967 c -30.28263,-5.43211 -55.83631,-18.95143 -78.32109,-41.43621 -20.6936,-20.6936 -32.29739,-41.06827 -39.40328,-69.18676 -4.03083,-15.95028 -4.99376,-41.0675 -2.21217,-57.70261 10.23172,-61.190115 55.33917,-108.202348 116.24436,-121.153074 16.11323,-3.42627619 42.32844,-3.46836022 57.92725,-0.092992 30.88313,6.682682 55.27812,20.134837 76.76174,42.328815 20.93375,21.625931 33.47014,45.636591 39.32902,75.325981 2.4164,12.24495 2.68634,39.42953 0.51226,51.58866 -5.50857,30.80811 -22.26939,61.671 -44.96206,82.79182 -21.11204,19.6497 -47.33129,32.7122 -75.50134,37.61499 -12.61144,2.19492 -37.9205,2.15542 -50.37469,-0.0787 z m 49.71513,-49.86991 c 12.98252,-3.1182 26.18969,-10.00328 33.90923,-17.67735 6.85031,-6.80996 10.57669,-12.32072 11.46163,-16.95001 l 0.51977,-2.71898 h -69.97265 c -38.48497,0 -70.18686,0.2142 -70.44866,0.476 -1.27625,1.27625 4.82514,11.65293 10.18264,17.3177 9.41038,9.95008 23.2128,17.06483 39.77097,20.50078 10.31952,2.14138 33.79256,1.64211 44.57707,-0.94814 z"
     id="path3723"
     inkscape:connector-curvature="0" /><path
     style="fill:#ffffff;stroke-width:1.14179099"
     d="m 477.63896,608.14207 -2.76806,-2.9445 -0.35067,-32.45102 -0.35066,-32.45103 H 442.1768 410.18404 l -3.33754,-3.33754 c -3.28541,-3.28541 -3.33754,-3.53427 -3.33754,-15.93135 0,-13.67532 1.04078,-17.4774 5.31769,-19.4261 1.82278,-0.83051 13.56973,-1.26769 34.0626,-1.26769 h 31.28032 l 0.35066,-32.51694 0.35067,-32.51693 3.16587,-3.16404 c 3.10953,-3.10772 3.41104,-3.16403 16.94028,-3.16403 13.67704,0 13.79388,0.0226 16.53002,3.20359 l 2.75562,3.2036 v 32.47737 32.47738 h 32.62887 32.62888 l 3.43299,3.43299 3.43299,3.43299 -0.38089,13.6653 c -0.56374,20.22492 2.34585,18.78029 -38.66093,19.19537 l -33.08191,0.33486 v 32.54353 32.54353 l -2.80258,2.80257 c -2.67352,2.67353 -3.45304,2.80259 -16.92784,2.80259 -13.70532,0 -14.20755,-0.0876 -16.89331,-2.9445 z"
     id="path3725"
     inkscape:connector-curvature="0" /></svg>