<?xml version="1.0" encoding="utf-8"?>
<!-- Generator: Adobe Illustrator 19.1.0, SVG Export Plug-In . SVG Version: 6.00 Build 0)  -->
<!DOCTYPE svg PUBLIC "-//W3C//DTD SVG 1.1//EN" "http://www.w3.org/Graphics/SVG/1.1/DTD/svg11.dtd">
<svg version="1.1" id="Layer_1" xmlns="http://www.w3.org/2000/svg" xmlns:xlink="http://www.w3.org/1999/xlink" x="0px" y="0px"
	 width="45" height="45" viewBox="0 0 40 40" enable-background="new 0 0 40 40" xml:space="preserve">
<g>
	<path fill="#0071BC" d="M10.6,15.6c0.6,0,1.1,0,1.8,0c0-1.2,0-2.4,0-3.6c4.4,0,8.7,0,13.1,0c0,1.2,0,2.3,0,3.6c0.6,0,1.2,0,1.8,0
		c0,2.2,0,4.3,0,6.5c-0.6,0-1.1,0-1.7,0c0,5.3,0,10.6,0,15.9c-4.4,0-8.7,0-13.1,0c0-5.3,0-10.5,0-15.9c-0.6,0-1.2,0-1.8,0
		C10.6,19.9,10.6,17.8,10.6,15.6z M19,14.9c-2.2,0-4,1.8-4,4c0,2.2,1.8,4,4,4c2.2,0,4-1.8,4-4C23,16.7,21.2,14.9,19,14.9z"/>
	<path fill="#0071BC" d="M17.9,4.1c0-0.7,0-1.4,0-2.2c0.7,0,1.4,0,2.2,0c0,0.7,0,1.5,0,2.2c1.8,0.4,3.3,1.3,4.3,2.8
		c0.7,1.1,1.1,2.2,1.1,3.6c-4.3,0-8.7,0-13,0C12,8,14.4,5.1,17.9,4.1z"/>
	<path fill="#0071BC" d="M9.1,22.1c-1.3-0.1-2.3-0.6-2.9-1.8C6.1,20,6,19.9,5.6,19.9c-0.5,0-1,0-1.5,0c0-0.7,0-1.4,0-2.2
		c0.5,0,1.1,0,1.6,0c0.3,0,0.4-0.1,0.6-0.3c0.6-1.1,1.5-1.7,2.9-1.8C9.1,17.7,9.1,19.9,9.1,22.1z"/>
	<path fill="#0071BC" d="M28.8,22c0-2.1,0-4.3,0-6.4c1-0.1,2.3,0.5,2.8,1.6c0.2,0.4,0.4,0.5,0.8,0.5c0.4,0,0.9,0,1.4,0
		c0,0.7,0,1.4,0,2.2c-0.5,0-1,0-1.5,0c-0.3,0-0.5,0.1-0.6,0.4C31.1,21.4,29.9,22.1,28.8,22z"/>
	<path fill="#0071BC" d="M18.9,21.3c-1.4,0-2.5-1.1-2.5-2.5c0-1.4,1.1-2.5,2.6-2.5c1.4,0,2.5,1.1,2.5,2.5
		C21.5,20.2,20.3,21.3,18.9,21.3z"/>
</g>
</svg>
