<?xml version="1.0" encoding="iso-8859-1"?>
<!-- Generator: Adobe Illustrator 16.0.0, SVG Export Plug-In . SVG Version: 6.00 Build 0)  -->
<!DOCTYPE svg PUBLIC "-//W3C//DTD SVG 1.1//EN" "http://www.w3.org/Graphics/SVG/1.1/DTD/svg11.dtd">
<svg version="1.1" id="Capa_1" xmlns="http://www.w3.org/2000/svg" xmlns:xlink="http://www.w3.org/1999/xlink" x="0px" y="0px"
	 width="50px" height="50px" viewBox="0 0 468.994 468.994" style="enable-background:new 0 0 468.994 468.994;"
	 xml:space="preserve">
<g>
	<g>
		<path d="M234.497,0C145.947,0,74.163,71.783,74.163,160.332c0,88.551,160.334,308.662,160.334,308.662
			s160.334-220.111,160.334-308.662C394.831,71.783,323.047,0,234.497,0z M234.497,246.79c-52.395,0-94.869-42.475-94.869-94.869
			c0-52.394,42.474-94.869,94.869-94.869c52.395,0,94.869,42.475,94.869,94.869C329.366,204.315,286.892,246.79,234.497,246.79z"/>
		<path d="M203.709,185.891l-23.732,10.928c-3.513,1.439-7.236,4.075-8.719,7.437c0,0-0.354,0.846-0.953,2.325
			c14.009,16.429,34.189,27.426,56.925,29.376l6.202-41.46l-18.32-18.222L203.709,185.891z"/>
		<path d="M289.017,196.818l-23.731-10.928l-11.401-9.615l-18.32,18.223l6.201,41.458c22.735-1.95,42.916-12.947,56.927-29.376
			c-0.6-1.479-0.953-2.325-0.953-2.325C296.207,200.6,292.529,198.259,289.017,196.818z"/>
		<path d="M277.295,115.388c0.265-26.318-12.271-42.067-42.799-42.067c-30.529,0-43.065,15.749-42.796,42.067
			c0.41,37.926,18.522,60.541,42.796,60.541C258.771,175.929,276.883,153.313,277.295,115.388z"/>
	</g>
</g>
<g>
</g>
<g>
</g>
<g>
</g>
<g>
</g>
<g>
</g>
<g>
</g>
<g>
</g>
<g>
</g>
<g>
</g>
<g>
</g>
<g>
</g>
<g>
</g>
<g>
</g>
<g>
</g>
<g>
</g>
</svg>
