<?xml version="1.0" encoding="iso-8859-1"?>
<!-- Generator: Adobe Illustrator 19.0.0, SVG Export Plug-In . SVG Version: 6.00 Build 0)  -->
<svg version="1.1" id="Layer_1" xmlns="http://www.w3.org/2000/svg" xmlns:xlink="http://www.w3.org/1999/xlink" x="0px" y="0px"
	 width="40" heigth="40" viewBox="0 0 512 512" style="enable-background:new 0 0 512 512;" xml:space="preserve">
<path style="fill:#E04F5F;" d="M240,309.088c5.264,0.56,10.592,0.848,16,0.848c5.408,0,10.736-0.304,16-0.848
	c76.976-8.096,137.008-74,137.008-154.112C409.008,69.376,340.512,0,256,0S102.992,69.376,102.992,154.976
	C102.992,235.088,163.024,300.976,240,309.088z M256,99.04c30.496,0,55.216,25.04,55.216,55.92s-24.72,55.936-55.216,55.936
	s-55.216-25.04-55.216-55.92S225.504,99.04,256,99.04z"/>
<ellipse style="fill:#FFFFFF;" cx="256" cy="154.976" rx="55.216" ry="55.92"/>
<path d="M272,309.088c-5.264,0.56-10.592,0.848-16,0.848s-10.736-0.304-16-0.848V512h32V309.088z"/>
<g>
</g>
<g>
</g>
<g>
</g>
<g>
</g>
<g>
</g>
<g>
</g>
<g>
</g>
<g>
</g>
<g>
</g>
<g>
</g>
<g>
</g>
<g>
</g>
<g>
</g>
<g>
</g>
<g>
</g>
</svg>
