<?xml version="1.0" encoding="UTF-8" standalone="no"?>
<svg
   xmlns:dc="http://purl.org/dc/elements/1.1/"
   xmlns:cc="http://creativecommons.org/ns#"
   xmlns:rdf="http://www.w3.org/1999/02/22-rdf-syntax-ns#"
   xmlns:svg="http://www.w3.org/2000/svg"
   xmlns="http://www.w3.org/2000/svg"
   xmlns:sodipodi="http://sodipodi.sourceforge.net/DTD/sodipodi-0.dtd"
   xmlns:inkscape="http://www.inkscape.org/namespaces/inkscape"
   version="1.1"
   viewBox="0 0 301.276 301.276"
   enable-background="new 0 0 301.276 301.276"
   id="svg3780"
   sodipodi:docname="policeman-icon.svg"
   inkscape:version="0.92.1 r15371">
  <metadata
     id="metadata3786">
    <rdf:RDF>
      <cc:Work
         rdf:about="">
        <dc:format>image/svg+xml</dc:format>
        <dc:type
           rdf:resource="http://purl.org/dc/dcmitype/StillImage" />
        <dc:title></dc:title>
      </cc:Work>
    </rdf:RDF>
  </metadata>
  <defs
     id="defs3784" />
  <sodipodi:namedview
     pagecolor="#ffffff"
     bordercolor="#666666"
     borderopacity="1"
     objecttolerance="10"
     gridtolerance="10"
     guidetolerance="10"
     inkscape:pageopacity="0"
     inkscape:pageshadow="2"
     inkscape:window-width="1366"
     inkscape:window-height="705"
     id="namedview3782"
     showgrid="false"
     inkscape:zoom="0.78333488"
     inkscape:cx="150.638"
     inkscape:cy="150.638"
     inkscape:window-x="-8"
     inkscape:window-y="-8"
     inkscape:window-maximized="1"
     inkscape:current-layer="svg3780" />
  <g
     id="g3778">
    <path
       d="m193.445,168.427h-2.191l-25.36,79.116-7.987-55.058 8.483-16.451c0.834-1.617 0.765-3.552-0.182-5.106-0.947-1.554-2.635-2.502-4.455-2.502h-22.24c-1.82,0-3.508,0.948-4.455,2.502-0.947,1.554-1.016,3.488-0.182,5.106l8.483,16.451-7.98,55.051-25.361-79.11h-2.186c-29.042,0-52.585,23.543-52.585,52.585v67.741c0,6.916 5.607,12.523 12.523,12.523h165.736c6.916,0 12.523-5.607 12.523-12.523v-67.741c-2.84217e-14-29.041-23.543-52.584-52.584-52.584z"
       id="path3772" />
    <path
       d="m107.534,90.351c-0.004,0.298-0.018,0.592-0.018,0.89 0,30.152 19.305,54.595 43.12,54.595s43.12-24.443 43.12-54.595c0-0.297-0.014-0.59-0.018-0.886-10.141,7.843-25.438,12.672-43.099,12.672-17.666-1.42109e-14-32.964-4.83-43.105-12.676z"
       id="path3774" />
    <path
       d="m95.903,59.463l10.63,7.149c0.153,13.498 19.837,24.415 44.105,24.415 24.268,0 43.952-10.916 44.105-24.414l10.63-7.149c2.258-1.519 3.307-4.301 2.614-6.933l-6.226-23.633c-0.799-3.032-2.851-5.58-5.643-7.007l-40.463-20.683c-1.575-0.805-3.296-1.208-5.017-1.208-1.721,0-3.442,0.403-5.017,1.208l-40.463,20.682c-2.792,1.427-4.844,3.975-5.642,7.007l-6.227,23.633c-0.693,2.632 0.356,5.414 2.614,6.933zm41.664-33.586c0.19-1.292 1.298-2.249 2.604-2.249h21.107c1.32,0 2.436,0.978 2.609,2.286l1.55,11.71c0,5.856-9.295,13.935-13.152,17.036-0.962,0.773-2.334,0.771-3.296-0.002-3.859-3.102-13.149-11.18-13.149-17.034l1.727-11.747z"
       id="path3776" />
  </g>
  <path
     style="fill:#ffffff;stroke-width:1.27659321"
     d="m 60.970505,298.39068 c -5.449912,-3.81727 -5.817179,-7.19418 -5.304836,-48.77634 0.444439,-36.07097 0.703854,-39.90276 3.104918,-45.8625 7.814084,-19.3955 24.286669,-32.22453 44.213023,-34.4336 l 6.67575,-0.74008 5.32932,17.00859 c 15.34147,48.9625 20.05263,62.57504 20.85663,60.26368 0.45994,-1.32225 2.45334,-13.89344 4.42978,-27.93597 l 3.59352,-25.53186 -4.65784,-9.22343 c -2.56182,-5.07289 -4.65784,-9.48398 -4.65784,-9.80242 0,-0.31843 0.90273,-1.48171 2.00607,-2.58505 1.55094,-1.55094 4.84624,-2.00608 14.52451,-2.00608 16.855,0 17.41847,0.70601 11.02662,13.81599 l -4.79535,9.83548 3.94532,27.33026 c 2.16993,15.03164 4.18238,27.5673 4.47211,27.85704 0.4406,0.4406 15.10157,-43.9463 23.24288,-70.36911 1.26891,-4.11827 3.07351,-7.78187 4.01025,-8.14132 2.69548,-1.03436 15.3654,1.92571 22.78826,5.324 14.06902,6.44101 25.50285,21.3132 28.5331,37.11354 0.9644,5.02856 1.33202,20.52421 1.07026,45.11207 l -0.39872,37.45252 -3.58181,3.07931 -3.58183,3.07933 h -87.0914 c -74.292688,0 -87.482492,-0.27393 -89.752695,-1.86405 z"
     id="path3788"
     inkscape:connector-curvature="0" />
  <path
     style="fill:#ffffff;stroke-width:1.27659321"
     d="m 143.57676,144.37774 c -12.10069,-2.33131 -25.2652,-14.67712 -30.61543,-28.71147 -2.5434,-6.67165 -5.79126,-22.070779 -4.85291,-23.009131 0.28841,-0.288407 3.05322,0.874433 6.14403,2.584089 10.33706,5.717862 19.66012,7.697012 36.25789,7.697012 16.59777,0 25.92083,-1.97915 36.25789,-7.697012 3.09081,-1.709656 5.9121,-2.816022 6.26953,-2.45859 1.56659,1.566596 -2.96251,19.488082 -6.92842,27.415462 -9.02031,18.03055 -25.58135,27.44545 -42.53258,24.17964 z"
     id="path3790"
     inkscape:connector-curvature="0" />
  <path
     style="fill:#ffffff;stroke-width:1.27659321"
     d="m 140.17263,89.62067 c -17.47457,-2.562255 -32.42816,-12.165596 -32.42816,-20.825683 0,-1.054525 -2.89672,-3.998405 -6.43716,-6.541955 -3.540435,-2.54355 -6.740196,-5.414348 -7.110579,-6.37955 -0.952945,-2.483337 5.814199,-27.716664 8.150749,-30.392481 2.15902,-2.47252 41.93354,-23.4584023 46.75348,-24.66813014 2.29058,-0.57489897 8.82233,2.19236214 25.85411,10.95342914 12.53407,6.447466 23.29007,12.194867 23.90221,12.772001 1.4309,1.349063 8.46146,26.326998 8.46146,30.06159 0,2.000924 -1.85469,4.026118 -6.29892,6.877969 -4.55032,2.91993 -6.53552,5.119275 -7.15124,7.922619 -2.00706,9.138097 -15.33685,17.340741 -32.77961,20.171317 -8.87524,1.440258 -11.38708,1.446127 -20.91634,0.04887 z M 158.3933,49.723306 c 7.54976,-7.842385 8.1975,-9.599552 6.76441,-18.350355 -0.67559,-4.125362 -1.23168,-7.644274 -1.23575,-7.819806 -0.0265,-1.14323 -25.53404,-0.08377 -26.25991,1.090705 -0.47924,0.77542 -1.15523,4.946575 -1.50221,9.269235 l -0.63088,7.85938 6.01325,6.688182 c 7.42538,8.258814 9.93497,8.446857 16.85109,1.262659 z"
     id="path3792"
     inkscape:connector-curvature="0" />
</svg>
