<?xml version="1.0" encoding="UTF-8" standalone="no"?>
<!-- Generator: Adobe Illustrator 16.0.0, SVG Export Plug-In . SVG Version: 6.00 Build 0)  -->

<svg
   xmlns:dc="http://purl.org/dc/elements/1.1/"
   xmlns:cc="http://creativecommons.org/ns#"
   xmlns:rdf="http://www.w3.org/1999/02/22-rdf-syntax-ns#"
   xmlns:svg="http://www.w3.org/2000/svg"
   xmlns="http://www.w3.org/2000/svg"
   xmlns:sodipodi="http://sodipodi.sourceforge.net/DTD/sodipodi-0.dtd"
   xmlns:inkscape="http://www.inkscape.org/namespaces/inkscape"
   version="1.1"
   id="Capa_1"
   x="0px"
   y="0px"
   width="612px"
   height="612px"
   viewBox="0 0 612 612"
   style="enable-background:new 0 0 612 612;"
   xml:space="preserve"
   sodipodi:docname="user-icon (1).svg"
   inkscape:version="0.92.1 r15371"><metadata
     id="metadata3766"><rdf:RDF><cc:Work
         rdf:about=""><dc:format>image/svg+xml</dc:format><dc:type
           rdf:resource="http://purl.org/dc/dcmitype/StillImage" /><dc:title></dc:title></cc:Work></rdf:RDF></metadata><defs
     id="defs3764" /><sodipodi:namedview
     pagecolor="#ffffff"
     bordercolor="#666666"
     borderopacity="1"
     objecttolerance="10"
     gridtolerance="10"
     guidetolerance="10"
     inkscape:pageopacity="0"
     inkscape:pageshadow="2"
     inkscape:window-width="1366"
     inkscape:window-height="705"
     id="namedview3762"
     showgrid="false"
     inkscape:zoom="0.38562092"
     inkscape:cx="306"
     inkscape:cy="306"
     inkscape:window-x="-8"
     inkscape:window-y="-8"
     inkscape:window-maximized="1"
     inkscape:current-layer="Capa_1" /><g
     id="g3729"><path
       d="M306,328.667c90.759,0,164.333-73.575,164.333-164.333S396.759,0,306,0c-90.759,0-164.333,73.575-164.333,164.333   S215.241,328.667,306,328.667z M383.878,229.376c-7.475,24.718-39.498,43.298-77.878,43.298c-38.38,0-70.403-18.581-77.878-43.298   H383.878z M583.667,498.667v54.169c0,8.029-5.912,17.359-13.246,20.624C541.993,586.109,464.45,612,306,612   c-158.451,0-235.992-25.891-264.42-38.54c-7.335-3.265-13.246-12.595-13.246-20.624v-54.169   c0-81.174,61.804-148.515,140.666-157.533c2.396-0.275,5.949,0.751,7.903,2.165c36.361,26.324,80.877,42.035,129.097,42.035   s92.738-15.711,129.097-42.035c1.955-1.414,5.508-2.44,7.904-2.165C521.862,350.152,583.667,417.493,583.667,498.667z"
       id="path3727" /></g><g
     id="g3731" /><g
     id="g3733" /><g
     id="g3735" /><g
     id="g3737" /><g
     id="g3739" /><g
     id="g3741" /><g
     id="g3743" /><g
     id="g3745" /><g
     id="g3747" /><g
     id="g3749" /><g
     id="g3751" /><g
     id="g3753" /><g
     id="g3755" /><g
     id="g3757" /><g
     id="g3759" /><path
     style="fill:#ffffff;stroke-width:2.59322023"
     d="M 218.8678,608.09295 C 177.16992,605.5405 115.04455,595.50451 82.723729,586.09969 48.176115,576.04692 37.506234,571.08643 33.415649,563.17611 28.1868,553.06464 28.21765,490.98967 33.463943,466.00169 46.190617,405.38483 100.52889,352.98106 159.88658,344.07983 c 10.89324,-1.63355 13.6031,-0.96392 24.59059,6.07649 18.89477,12.10713 43.88686,23.0753 66.80588,29.31882 31.70997,8.63832 82.5072,8.05925 113.55276,-1.29446 22.2044,-6.68996 49.66536,-19.29749 65.37944,-30.0162 9.81685,-6.69616 17.06243,-6.68619 39.27344,0.054 51.86361,15.73864 96.29071,62.62296 108.52972,114.53243 4.60473,19.53003 5.39494,92.85816 1.08742,100.90683 -8.71454,16.28331 -92.47818,36.59693 -179.7375,43.58836 -30.4114,2.43664 -145.69342,2.97751 -180.50053,0.84684 z"
     id="path3768"
     inkscape:connector-curvature="0" /><path
     style="fill:#ffffff;stroke-width:2.59322023"
     d="M 266.10467,322.20275 C 226.50526,311.46477 192.48281,287.38516 171.4765,255.2291 149.34159,221.3454 142.17163,194.67229 144.29991,154.12892 147.76908,88.041786 190.34588,32.605171 255.05834,9.9172352 c 19.54464,-6.8522736 25.52003,-7.7574517 50.68234,-7.6775807 23.76289,0.075429 32.08195,1.2521727 49.82745,7.0481745 52.5325,17.158068 94.51985,61.695012 108.39924,114.981581 4.96871,19.07622 4.9365,60.17066 -0.0628,79.9205 -13.04776,51.5472 -53.2863,95.21926 -105.00292,113.96285 -26.83558,9.72598 -65.62255,11.41878 -92.79702,4.04999 z m 76.22252,-54.64768 c 8.55316,-2.88846 19.89011,-8.82823 25.19322,-13.1995 9.07892,-7.48361 19.00962,-22.20859 16.60169,-24.61653 -0.60183,-0.60182 -36.29009,-0.78512 -79.30723,-0.40731 l -78.213,0.68691 4.77914,9.07628 c 5.69074,10.80752 24.92813,24.51799 41.60774,29.65381 18.25849,5.62197 50.81593,5.06147 69.33844,-1.19366 z"
     id="path3770"
     inkscape:connector-curvature="0" /></svg>