<?xml version="1.0" encoding="utf-8"?>
<!-- Generator: Adobe Illustrator 19.0.0, SVG Export Plug-In . SVG Version: 6.00 Build 0)  -->
<svg version="1.1" id="Layer_1" xmlns="http://www.w3.org/2000/svg" xmlns:xlink="http://www.w3.org/1999/xlink" x="0px" y="0px"
	 viewBox="-847 849 512 512" enable-background="new -847 849 512 512" xml:space="preserve">
<g>
	<path fill="#fff" stroke="#fff" stroke-width= "4" stroke-miterlimit="10" d="M-519.2,1044.4l-85.6-46.9c-7.9-4.3-17.3-5.7-26.4-3.8c-9,1.9-16.7,6.9-21.6,14c-10.1,14.6-4.9,33.8,11.4,42.7l25.8,14.1
		v30.7h-22.6v-7.5c0-2.9-2.6-5.2-5.9-5.2c-3.3,0-5.9,2.3-5.9,5.2v25.9c0,2.9,2.6,5.2,5.9,5.2c3.3,0,5.9-2.3,5.9-5.2v-7.9h28.5
		c3.3,0,5.9-2.3,5.9-5.2v-29.5c0,0,26.2,14.3,26.6,14.6c2.4,1.3,5.1,2,8.1,2c9.7,0,20.9-7.2,28.6-18.4c4.7-6.8,7.3-13.8,7.7-19.9
		l7.4,4.1c2.8,1.5,6.4,0.7,8.1-1.7C-515.5,1049.2-516.4,1046-519.2,1044.4L-519.2,1044.4z M-642.7,1013.3c3.2-4.7,8.3-7.9,14.3-9.2
		c6-1.3,12.2-0.4,17.4,2.5l50.2,27.5c-6,3.1-11.9,8.4-16.5,15.1c-4.7,6.8-7.3,13.8-7.7,19.9l-50.1-27.4
		C-646,1035.6-649.4,1022.9-642.7,1013.3z M-550.5,1063.8c-6,8.8-16,15-20.5,12.9c-3.5-1.6-3.6-11.6,3.7-22.1
		c6-8.8,15-14.7,20.5-12.9C-543.5,1043.5-543.3,1053.2-550.5,1063.8L-550.5,1063.8z"/>
</g>
<g>
	<path fill="#fff" stroke="#fff" stroke-width= "2" stroke-miterlimit="10" d="M-665.3,1193.3l3.1,3.5l1.8,1.9c3.5,3.8,5.2,7.9,5.2,12.1c0,4.1-1.5,7.8-4.6,10.9c-4.2,4.3-9.7,6.4-16.5,6.4
		c-5.3,0-9.6-1.4-12.9-4.3c-3.4-2.9-5-6.6-5-11.1c0-5.5,2.6-10.1,7.9-13.8c2.8-1.9,5.3-2.9,7.7-2.9c1.2,0,2.2,0.3,3,0.9
		s1.2,1.4,1.2,2.4c0,1.3-0.9,2.5-2.6,3.4l-2.7,1.5c-1.6,0.9-2.9,2.1-3.9,3.6c-1,1.5-1.6,3.1-1.6,4.6c0,2.4,0.9,4.4,2.7,5.9
		c1.8,1.6,4.1,2.3,6.9,2.3c3.1,0,5.8-1,8.1-3.1c2.3-2.1,3.4-4.5,3.4-7.3c0-1.8-0.5-3.4-1.4-4.8c-0.9-1.4-2.9-3.7-6-6.7
		c-2.1-2.1-3.7-4-4.6-5.5h-9.1c-3.1,0-4.7-1-4.7-2.9c0-1.4,0.5-2.5,1.6-3.2c1.1-0.8,2.6-1.1,4.6-1.1h5.8c0.5-4,2.5-7.3,6.1-9.9
		c3.6-2.6,8-3.9,13.1-3.9c3.8,0,6.9,0.9,9.3,2.8c2.4,1.9,3.6,4.3,3.6,7.3c0,4-1.9,7-5.7,9.1c-2.2,1.2-5.6,1.8-10.3,1.8H-665.3z
		 M-669.3,1186.1h8.1c4.6,0,6.9-1.2,6.9-3.6c0-0.9-0.5-1.7-1.4-2.2s-2.2-0.8-3.7-0.8c-2.4,0-4.7,0.7-6.7,2
		S-669.2,1184.3-669.3,1186.1z"/>
	<path fill="#fff" stroke="#fff" stroke-width= "2" stroke-miterlimit="10" d="M-639.2,1207.3h3.8c2.8,0,4.3,0.9,4.3,2.7c0,1.2-0.5,2.2-1.5,2.9c-1,0.7-2.4,1-4.2,1h-5.4c-2,0-3.6-0.4-4.7-1.1
		c-1.1-0.7-1.7-1.7-1.7-3c0-0.7,0.2-1.5,0.7-2.5l5.6-12.2l0.4-0.8c1-2.3,2.7-3.4,5-3.4c0.9,0,1.8,0.3,2.5,0.8s1,1.2,1,2
		c0,0.6-0.3,1.6-0.9,3L-639.2,1207.3z M-634.8,1181.2c1.3,0,2.4,0.4,3.3,1.2c0.9,0.8,1.4,1.8,1.4,3c0,1.2-0.5,2.2-1.4,3
		s-2,1.2-3.3,1.2s-2.4-0.4-3.3-1.2c-0.9-0.8-1.4-1.8-1.4-3c0-1.2,0.5-2.2,1.4-3C-637.2,1181.6-636.1,1181.2-634.8,1181.2z"/>
	<path fill="#fff" stroke="#fff" stroke-width= "2" stroke-miterlimit="10" d="M-609.2,1201.1l5.3,7.3c0.7,0.9,1,1.6,1,2.2c0,0.9-0.4,1.8-1.3,2.5c-0.9,0.7-1.8,1.1-2.9,1.1c-0.9,0-1.8-0.5-2.5-1.4
		l-0.4-0.5l-7.9-10.5l-3.8,8.3c-1.2,2.7-3,4-5.4,4c-1,0-1.8-0.3-2.5-0.8s-1-1.2-1-1.9c0-0.6,0.2-1.3,0.5-2l0.4-0.8l14.5-31.8
		l0.4-0.8c1-2.3,2.7-3.4,5-3.4c0.9,0,1.8,0.3,2.4,0.8s1,1.2,1,2c0,0.6-0.2,1.3-0.5,2.1l-0.4,0.8l-8.6,18.9l7.6-5
		c1.6-1,2.9-1.6,4.1-1.6c0.9,0,1.7,0.3,2.4,0.8c0.6,0.5,0.9,1.2,0.9,2c0,1.3-0.8,2.6-2.5,3.7l-0.8,0.5L-609.2,1201.1z"/>
	<path fill="#fff" stroke="#fff" stroke-width= "2" stroke-miterlimit="10" d="M-576.1,1207.3h3.9c1.6,0,2.7,0.2,3.3,0.6c0.7,0.4,1,1.1,1,2c0,1.2-0.5,2.2-1.5,2.9c-1,0.7-2.4,1-4.2,1h-6.1
		c-1.9,0-3.2-0.7-3.8-2c-1.2,1.3-2.8,2-4.7,2h-4.9c-2,0-3.6-0.6-4.9-1.7c-1.3-1.1-2-2.5-2-4.2c0-1,0.3-2.1,0.9-3.4l4.6-10.1
		c1.3-2.8,3-4.2,5.3-4.2c1,0,1.8,0.3,2.5,0.8s1,1.2,1,2c0,0.6-0.2,1.3-0.5,2.1l-0.4,0.8l-3.6,7.7l-0.4,0.9c-0.2,0.5-0.3,0.9-0.3,1.2
		c0,0.9,0.6,1.4,2,1.4c2.8,0,4.7-1,5.6-3l4.2-9.3c1.3-2.8,3-4.2,5.4-4.2c0.9,0,1.8,0.3,2.4,0.8s1,1.2,1,2c0,0.6-0.3,1.6-0.9,2.9
		L-576.1,1207.3z"/>
	<path fill="#fff" stroke="#fff" stroke-width= "2" stroke-miterlimit="10" d="M-558.2,1197.4l-1.2,2.5c-1,2.3-2.4,3.4-4.1,3.4c-1,0-1.9-0.3-2.5-0.8c-0.7-0.5-1-1.2-1-2c0-0.5,0.2-1.2,0.7-2.4l3.8-8.4
		c0.9-2,2.2-3,3.9-3c1.7,0,2.7,0.7,3.1,2.1l0.3,0.9c0.1,0.5,0.3,0.8,0.6,0.9c0.3,0.1,0.9,0.2,2,0.2h7.9c3,0,4.4,0.9,4.4,2.8
		c0,2.6-1.9,3.8-5.6,3.8l-0.4,0.3c-3.6,3.1-5.4,5.4-5.4,7.1c0,1.7,1,2.5,3.1,2.5h4.3c2.9,0,4.3,0.9,4.3,2.7c0,1.2-0.5,2.2-1.5,2.9
		c-1,0.7-2.4,1-4.2,1h-6.6c-2.3,0-4.1-0.7-5.5-2.1s-2.2-3.2-2.2-5.4c0-1.4,0.4-2.8,1.2-4.1c0.8-1.3,2.1-3,4.1-4.9H-558.2z"/>
	<path fill="#fff" stroke="#fff" stroke-width= "2" stroke-miterlimit="10" d="M-528.9,1207.3h3.8c2.8,0,4.3,0.9,4.3,2.7c0,1.2-0.5,2.2-1.5,2.9c-1,0.7-2.4,1-4.2,1h-5.4c-2,0-3.6-0.4-4.7-1.1
		c-1.1-0.7-1.7-1.7-1.7-3c0-0.7,0.2-1.5,0.7-2.5l5.6-12.2l0.4-0.8c1-2.3,2.7-3.4,5-3.4c0.9,0,1.8,0.3,2.5,0.8s1,1.2,1,2
		c0,0.6-0.3,1.6-0.9,3L-528.9,1207.3z M-524.4,1181.2c1.3,0,2.4,0.4,3.3,1.2c0.9,0.8,1.4,1.8,1.4,3c0,1.2-0.5,2.2-1.4,3
		s-2,1.2-3.3,1.2s-2.4-0.4-3.3-1.2c-0.9-0.8-1.4-1.8-1.4-3c0-1.2,0.5-2.2,1.4-3C-526.9,1181.6-525.7,1181.2-524.4,1181.2z"/>
	<path fill="#fff" stroke="#fff" stroke-width= "2" stroke-miterlimit="10" d="M-502.6,1190.8h1.1c2.9,0,4.3,0.9,4.3,2.7c0,1.2-0.5,2.2-1.5,2.9c-1,0.7-2.4,1-4.2,1h-2.5l-4.5,9.9h3.8
		c2.9,0,4.3,0.9,4.3,2.7c0,1.2-0.5,2.2-1.5,2.9c-1,0.7-2.4,1-4.2,1h-6.1c-1.7,0-3.1-0.4-4.1-1.1c-1-0.7-1.5-1.7-1.5-2.9
		c0-0.7,0.2-1.6,0.6-2.5l0.6-1.3l4-8.8h-0.5c-2.5,0-3.8-0.9-3.8-2.6c0-1.2,0.5-2.2,1.5-2.9c1-0.7,2.4-1,4.2-1h1.6l1.8-3.9l0.4-0.8
		c1.1-2.2,2.7-3.3,5-3.3c0.9,0,1.7,0.3,2.4,0.8c0.7,0.6,1,1.2,1,2c0,0.8-0.3,1.7-0.9,2.9L-502.6,1190.8z"/>
	<path fill="#fff" stroke="#fff" stroke-width= "2" stroke-miterlimit="10" d="M-489.2,1207.3h3.8c2.8,0,4.3,0.9,4.3,2.7c0,1.2-0.5,2.2-1.5,2.9c-1,0.7-2.4,1-4.2,1h-5.4c-2,0-3.6-0.4-4.7-1.1
		c-1.1-0.7-1.7-1.7-1.7-3c0-0.7,0.2-1.5,0.7-2.5l5.6-12.2l0.4-0.8c1-2.3,2.7-3.4,5-3.4c0.9,0,1.8,0.3,2.5,0.8s1,1.2,1,2
		c0,0.6-0.3,1.6-0.9,3L-489.2,1207.3z M-484.8,1181.2c1.3,0,2.4,0.4,3.3,1.2c0.9,0.8,1.4,1.8,1.4,3c0,1.2-0.5,2.2-1.4,3
		c-0.9,0.8-2,1.2-3.3,1.2c-1.3,0-2.4-0.4-3.3-1.2s-1.4-1.8-1.4-3c0-1.2,0.5-2.2,1.4-3C-487.2,1181.6-486.1,1181.2-484.8,1181.2z"/>
</g>
</svg>
